<?xml version="1.0" encoding="utf-8"?>
<!-- Generator: Adobe Illustrator 23.0.3, SVG Export Plug-In . SVG Version: 6.00 Build 0)  -->
<svg version="1.1" id="Layer_1" xmlns="http://www.w3.org/2000/svg" xmlns:xlink="http://www.w3.org/1999/xlink" x="0px" y="0px"
	 viewBox="0 0 195.4 102.2" style="enable-background:new 0 0 195.4 102.2;" xml:space="preserve">
<style type="text/css">
	.st0{fill:#1A1F71;}
</style>
<g>
	<g>
		<path class="st0" d="M15.9,37.6L6.1,7.5h4.2l4.7,14.8c1.3,4.1,2.4,7.7,3.2,11.3h0.1c0.8-3.5,2.1-7.3,3.4-11.2l5.1-14.9h4.2
			L20.2,37.6H15.9z"/>
		<path class="st0" d="M33,27.6c0.1,5.3,3.5,7.5,7.4,7.5c2.8,0,4.5-0.5,6-1.1l0.7,2.8c-1.4,0.6-3.8,1.3-7.2,1.3
			c-6.7,0-10.6-4.4-10.6-10.9c0-6.5,3.8-11.7,10.1-11.7c7.1,0,8.9,6.2,8.9,10.2c0,0.8-0.1,1.4-0.1,1.8H33z M44.5,24.7
			c0.1-2.5-1-6.4-5.5-6.4c-4,0-5.7,3.7-6,6.4H44.5z"/>
		<path class="st0" d="M51.4,22.8c0-2.5,0-4.7-0.2-6.7h3.4l0.1,4.2H55c1-2.9,3.4-4.7,6-4.7c0.4,0,0.8,0,1.1,0.1v3.7
			c-0.4-0.1-0.8-0.1-1.3-0.1c-2.8,0-4.7,2.1-5.3,5c-0.1,0.5-0.2,1.2-0.2,1.8v11.5h-3.9V22.8z"/>
		<path class="st0" d="M68.8,9.9c0,1.3-0.9,2.4-2.5,2.4c-1.4,0-2.4-1.1-2.4-2.4c0-1.4,1-2.5,2.5-2.5C67.9,7.5,68.8,8.6,68.8,9.9
			 M64.4,16h3.9v21.6h-3.9V16z"/>
		<path class="st0" d="M73.5,37.6V19h-3v-3h3v-1c0-3,0.7-5.8,2.5-7.6c1.5-1.4,3.4-2,5.3-2c1.4,0,2.6,0.3,3.4,0.6l-0.5,3
			c-0.6-0.3-1.4-0.5-2.5-0.5c-3.3,0-4.2,2.9-4.2,6.3V16h5.2v3h-5.2v18.6H73.5z"/>
		<path class="st0" d="M90.8,9.9c0.1,1.3-0.9,2.4-2.5,2.4c-1.4,0-2.4-1.1-2.4-2.4c0-1.4,1-2.5,2.5-2.5C89.9,7.5,90.8,8.6,90.8,9.9
			 M86.5,16h3.9v21.6h-3.9V16z"/>
		<path class="st0" d="M97.3,27.6c0.1,5.3,3.5,7.5,7.4,7.5c2.8,0,4.5-0.5,6-1.1l0.7,2.8c-1.4,0.6-3.8,1.3-7.2,1.3
			c-6.7,0-10.6-4.4-10.6-10.9c0-6.5,3.8-11.7,10.1-11.7c7.1,0,8.9,6.2,8.9,10.2c0,0.8-0.1,1.4-0.1,1.8H97.3z M108.9,24.7
			c0-2.5-1-6.4-5.5-6.4c-4,0-5.7,3.7-6,6.4H108.9z"/>
		<path class="st0" d="M134.4,5.9v26.1c0,1.9,0,4.1,0.2,5.6h-3.5l-0.2-3.8h-0.1c-1.2,2.4-3.8,4.2-7.4,4.2c-5.2,0-9.2-4.4-9.2-11
			c0-7.2,4.4-11.6,9.7-11.6c3.3,0,5.5,1.6,6.5,3.3h0.1V5.9H134.4z M130.5,24.8c0-0.5,0-1.2-0.2-1.7c-0.6-2.5-2.7-4.6-5.7-4.6
			c-4.1,0-6.5,3.6-6.5,8.4c0,4.4,2.1,8,6.4,8c2.6,0,5-1.7,5.8-4.7c0.1-0.5,0.2-1.1,0.2-1.7V24.8z"/>
		<path class="st0" d="M149,37.6c0.1-1.5,0.2-3.7,0.2-5.6V5.9h3.9v13.6h0.1c1.4-2.4,3.9-4,7.4-4c5.4,0,9.2,4.5,9.1,11
			c0,7.7-4.9,11.6-9.7,11.6c-3.1,0-5.6-1.2-7.2-4.1h-0.1l-0.2,3.6H149z M153,29c0,0.5,0.1,1,0.2,1.4c0.8,2.7,3,4.6,5.9,4.6
			c4.1,0,6.6-3.4,6.6-8.3c0-4.3-2.2-8-6.4-8c-2.7,0-5.2,1.8-6,4.8c-0.1,0.4-0.2,1-0.2,1.6V29z"/>
		<path class="st0" d="M173.9,16l4.7,12.8c0.5,1.4,1,3.1,1.4,4.4h0.1c0.4-1.3,0.8-3,1.4-4.5l4.3-12.7h4.2l-5.9,15.4
			c-2.8,7.4-4.7,11.2-7.4,13.5c-1.9,1.7-3.8,2.4-4.8,2.5l-1-3.3c1-0.3,2.3-0.9,3.4-1.9c1.1-0.8,2.4-2.4,3.3-4.4
			c0.2-0.4,0.3-0.7,0.3-0.9c0-0.2-0.1-0.5-0.3-1l-8-19.9H173.9z"/>
	</g>
	<g>
		<path class="st0" d="M71.3,52.4L59.4,82.5l-4.8-25.6c-0.6-2.9-2.8-4.5-5.3-4.5H29.8l-0.3,1.3c4,0.9,8.5,2.3,11.3,3.8
			c1.7,0.9,2.2,1.7,2.7,3.9l9.1,35.3h12.1l18.6-44.3H71.3z"/>
		<polygon class="st0" points="88.2,52.4 78.8,96.7 90.2,96.7 99.7,52.4 		"/>
		<path class="st0" d="M114.7,64.7c0-1.6,1.6-3.3,4.9-3.7c1.6-0.2,6.2-0.4,11.3,2l2-9.4c-2.8-1-6.3-2-10.7-2
			c-11.3,0-19.3,6-19.4,14.7c-0.1,6.4,5.7,9.9,10,12c4.5,2.2,6,3.5,5.9,5.5c0,3-3.6,4.3-6.8,4.3c-5.8,0.1-9.1-1.6-11.8-2.8L98.1,95
			c2.7,1.2,7.6,2.3,12.7,2.3c12,0,19.9-5.9,19.9-15.2C130.8,70.5,114.6,69.9,114.7,64.7"/>
		<path class="st0" d="M147.9,81l6.1-16.6l3.4,16.6H147.9z M152.2,52.4c-2.2,0-4.1,1.3-4.9,3.2l-17.2,41h12l2.4-6.6h14.7l1.4,6.6
			h10.6L162,52.4H152.2z"/>
	</g>
</g>
</svg>
